<mxfile host="65bd71144e">
    <diagram id="j8Pj99ob8njNc4maOt-b" name="Page-1">
        <mxGraphModel dx="3074" dy="713" grid="0" gridSize="9" guides="1" tooltips="1" connect="1" arrows="1" fold="1" page="1" pageScale="1" pageWidth="850" pageHeight="1100" math="0" shadow="0">
            <root>
                <mxCell id="0"/>
                <mxCell id="1" parent="0"/>
                <mxCell id="5" value="Window Title" style="strokeWidth=1;shadow=0;dashed=0;align=center;html=1;shape=mxgraph.mockup.containers.window;align=left;verticalAlign=top;spacingLeft=8;strokeColor2=#008cff;strokeColor3=#c4c4c4;fontColor=#666666;mainText=;fontSize=17;labelBackgroundColor=none;" vertex="1" parent="1">
                    <mxGeometry x="-1700" y="100" width="900" height="700" as="geometry"/>
                </mxCell>
                <mxCell id="7" value="" style="rounded=0;whiteSpace=wrap;html=1;" vertex="1" parent="1">
                    <mxGeometry x="-1340" y="570" width="540" height="10" as="geometry"/>
                </mxCell>
                <mxCell id="8" value="" style="rounded=0;whiteSpace=wrap;html=1;" vertex="1" parent="1">
                    <mxGeometry x="-1340" y="340" width="540" height="10" as="geometry"/>
                </mxCell>
                <mxCell id="9" value="" style="rounded=0;whiteSpace=wrap;html=1;" vertex="1" parent="1">
                    <mxGeometry x="-1350" y="130" width="10" height="670" as="geometry"/>
                </mxCell>
                <mxCell id="12" value="" style="rounded=1;whiteSpace=wrap;html=1;" vertex="1" parent="1">
                    <mxGeometry x="-1670" y="160" width="300" height="60" as="geometry"/>
                </mxCell>
                <mxCell id="13" value="&lt;font face=&quot;Georgia&quot; style=&quot;font-size: 27px&quot;&gt;&lt;b&gt;ASDAH TUCKSHOP&lt;/b&gt;&lt;/font&gt;" style="text;html=1;strokeColor=none;fillColor=none;align=center;verticalAlign=middle;whiteSpace=wrap;rounded=0;" vertex="1" parent="1">
                    <mxGeometry x="-1660" y="175" width="270" height="30" as="geometry"/>
                </mxCell>
                <mxCell id="14" value="" style="ellipse;shape=cloud;whiteSpace=wrap;html=1;fontFamily=Georgia;fontSize=27;fontStyle=0;labelBackgroundColor=#000000;labelBorderColor=default;" vertex="1" parent="1">
                    <mxGeometry x="-1468" y="245" width="98" height="62" as="geometry"/>
                </mxCell>
                <mxCell id="15" value="" style="ellipse;shape=cloud;whiteSpace=wrap;html=1;fontFamily=Georgia;fontSize=27;" vertex="1" parent="1">
                    <mxGeometry x="-1670" y="250" width="99" height="61" as="geometry"/>
                </mxCell>
                <mxCell id="16" value="$20.00" style="text;html=1;strokeColor=none;fillColor=none;align=center;verticalAlign=middle;whiteSpace=wrap;rounded=0;fontFamily=Georgia;fontSize=21;" vertex="1" parent="1">
                    <mxGeometry x="-1636" y="275.25" width="35" height="10.5" as="geometry"/>
                </mxCell>
                <mxCell id="18" value="$12.50" style="text;html=1;strokeColor=none;fillColor=none;align=center;verticalAlign=middle;whiteSpace=wrap;rounded=0;fontFamily=Georgia;fontSize=21;" vertex="1" parent="1">
                    <mxGeometry x="-1449" y="261" width="60" height="30" as="geometry"/>
                </mxCell>
                <mxCell id="19" value="" style="shape=umlActor;verticalLabelPosition=bottom;verticalAlign=top;html=1;outlineConnect=0;labelBackgroundColor=#000000;labelBorderColor=default;fontFamily=Georgia;fontSize=21;" vertex="1" parent="1">
                    <mxGeometry x="-1535.5" y="227.75" width="31" height="58" as="geometry"/>
                </mxCell>
            </root>
        </mxGraphModel>
    </diagram>
</mxfile>